<?xml version="1.0" standalone="no"?>
<!DOCTYPE svg PUBLIC "-//W3C//DTD SVG 20010904//EN"
 "http://www.w3.org/TR/2001/REC-SVG-20010904/DTD/svg10.dtd">
<svg version="1.0" xmlns="http://www.w3.org/2000/svg"
 width="470.000000pt" height="470.000000pt" viewBox="0 0 470.000000 470.000000"
 preserveAspectRatio="xMidYMid meet">
<metadata>
Created by potrace 1.11, written by Peter Selinger 2001-2013
</metadata>
<g transform="translate(0.000000,470.000000) scale(0.100000,-0.100000)"
fill="#000000" stroke="none">
<path d="M1825 3814 c-16 -2 -73 -9 -125 -15 -364 -41 -707 -172 -967 -368
-99 -75 -274 -254 -342 -351 -198 -282 -319 -622 -356 -1002 l-7 -68 1445 0
1444 0 12 108 c45 417 208 755 439 914 64 44 178 94 255 111 38 9 71 18 74 21
3 3 -25 42 -62 87 -266 318 -676 495 -1283 554 -131 13 -446 18 -527 9z"/>
<path d="M3795 3059 c-227 -20 -434 -154 -555 -358 -90 -152 -164 -401 -177
-596 l-6 -95 823 0 823 0 -7 73 c-20 208 -65 377 -141 532 -116 232 -279 371
-500 424 -99 24 -158 28 -260 20z"/>
<path d="M4060 1660 c0 -153 1 -160 20 -160 18 0 20 7 20 75 0 62 4 79 20 95
48 48 80 11 80 -93 0 -70 2 -77 20 -77 18 0 20 7 20 84 0 69 -4 88 -21 110
-24 30 -63 34 -97 10 l-22 -15 0 65 c0 59 -2 66 -20 66 -19 0 -20 -7 -20 -160z"/>
<path d="M523 1795 c-98 -30 -164 -86 -209 -175 -36 -72 -46 -211 -20 -291 59
-181 233 -256 467 -203 l69 16 0 164 0 164 -110 0 -110 0 0 -35 0 -35 65 0 65
0 0 -99 c0 -61 -4 -102 -11 -106 -6 -4 -48 -7 -93 -7 -73 -1 -90 3 -137 28
-119 64 -162 226 -98 374 42 95 118 140 240 140 42 0 91 -5 108 -11 38 -13 48
-6 53 35 3 27 -1 31 -37 42 -53 16 -189 16 -242 -1z"/>
<path d="M1562 1791 c-67 -23 -142 -94 -174 -165 -20 -44 -23 -67 -23 -171 0
-111 2 -124 28 -177 69 -141 230 -204 379 -148 76 28 122 71 160 148 32 64 33
71 33 187 0 111 -2 124 -28 177 -69 141 -223 202 -375 149z m208 -85 c128 -84
145 -346 31 -464 -86 -89 -229 -76 -296 27 -101 152 -45 417 97 460 50 16 126
5 168 -23z"/>
<path d="M2252 1791 c-67 -23 -142 -94 -174 -165 -20 -44 -23 -67 -23 -171 0
-111 2 -124 28 -177 69 -141 230 -204 379 -148 76 28 122 71 160 148 32 64 33
71 33 187 0 111 -2 124 -28 177 -69 141 -223 202 -375 149z m208 -85 c128 -84
145 -346 31 -464 -86 -89 -229 -76 -296 27 -101 152 -45 417 97 460 50 16 126
5 168 -23z"/>
<path d="M70 1460 l0 -340 45 0 45 0 0 340 0 340 -45 0 -45 0 0 -340z"/>
<path d="M960 1460 l0 -340 190 0 190 0 0 40 0 40 -145 0 -145 0 0 300 0 300
-45 0 -45 0 0 -340z"/>
<path d="M4304 1785 c-4 -9 -2 -21 4 -27 15 -15 44 -1 40 19 -4 23 -36 29 -44
8z"/>
<path d="M3257 1709 c-26 -15 -47 -63 -47 -109 0 -73 71 -121 131 -90 16 9 19
7 19 -10 0 -11 -9 -29 -21 -41 -18 -18 -28 -20 -65 -14 -35 5 -44 3 -44 -8 0
-19 22 -27 72 -27 30 0 46 7 69 29 29 29 29 30 29 155 0 105 -2 126 -15 126
-8 0 -15 -7 -15 -17 0 -15 -1 -15 -18 0 -21 19 -68 22 -95 6z m85 -36 c24 -21
25 -99 1 -125 -37 -41 -93 -5 -93 62 0 66 51 101 92 63z"/>
<path d="M3460 1610 c0 -103 1 -110 20 -110 18 0 20 7 20 68 0 74 17 112 51
112 12 0 19 7 19 20 0 24 -32 27 -54 4 -15 -14 -16 -14 -16 0 0 9 -8 16 -20
16 -19 0 -20 -7 -20 -110z"/>
<path d="M3618 1713 c-10 -2 -18 -11 -18 -19 0 -11 9 -13 40 -8 26 4 45 2 55
-6 26 -21 17 -37 -26 -44 -45 -7 -89 -44 -89 -76 0 -47 64 -75 113 -49 16 9
22 9 25 0 2 -6 10 -11 18 -11 11 0 14 18 14 85 0 78 -2 88 -25 110 -23 24 -61
30 -107 18z m92 -127 c0 -51 -59 -74 -84 -33 -9 15 -7 22 13 38 13 10 34 19
47 19 19 0 24 -5 24 -24z"/>
<path d="M3807 1523 c-11 -313 -9 -383 7 -383 8 0 18 5 21 10 4 7 12 7 25 0
46 -24 101 -7 125 40 53 102 -38 214 -124 153 l-24 -16 6 63 c4 35 7 78 7 97
0 30 2 33 19 23 33 -17 78 -11 107 13 22 19 28 34 32 80 4 52 2 58 -26 87 -34
34 -74 39 -110 14 -20 -14 -22 -14 -22 0 0 9 -8 16 -18 16 -17 0 -19 -15 -25
-197z m143 147 c43 -43 15 -140 -40 -140 -33 0 -60 35 -60 80 0 45 27 80 60
80 11 0 29 -9 40 -20z m-10 -360 c43 -43 15 -140 -40 -140 -33 0 -60 35 -60
80 0 45 27 80 60 80 11 0 29 -9 40 -20z"/>
<path d="M4300 1610 c0 -103 1 -110 20 -110 19 0 20 7 20 110 0 103 -1 110
-20 110 -19 0 -20 -7 -20 -110z"/>
<path d="M4449 1705 c-57 -31 -65 -139 -13 -183 33 -29 117 -29 122 0 3 14 -3
16 -32 11 -28 -4 -39 -1 -60 20 -17 17 -26 37 -26 57 0 46 42 84 85 77 32 -5
54 11 38 27 -12 11 -88 5 -114 -9z"/>
<path d="M4243 1425 c-28 -20 -37 -59 -20 -91 12 -24 11 -28 -15 -54 -30 -30
-35 -58 -16 -93 25 -48 82 -61 137 -32 26 13 30 13 41 0 7 -8 24 -15 38 -15
l27 0 -26 26 -26 26 18 36 c11 20 19 44 19 54 0 23 -29 23 -36 1 -3 -10 -10
-29 -15 -42 l-10 -24 -34 39 -33 39 29 23 c73 58 -1 161 -78 107z m72 -36 c5
-14 0 -28 -16 -45 -22 -23 -24 -24 -36 -8 -16 22 -17 46 -1 62 19 19 46 14 53
-9z m-20 -150 c39 -39 39 -41 21 -55 -27 -19 -52 -18 -76 6 -22 22 -25 42 -10
71 15 26 21 25 65 -22z"/>
<path d="M3254 1343 c54 -191 59 -204 80 -201 16 2 25 20 45 83 13 44 25 76
27 70 2 -5 13 -43 25 -83 18 -62 24 -73 41 -70 16 2 27 24 53 108 18 58 29
107 24 108 -23 9 -36 -11 -54 -82 -10 -41 -21 -73 -24 -70 -3 3 -15 38 -26 77
-16 56 -25 73 -40 75 -18 2 -24 -10 -45 -85 l-24 -87 -13 44 c-6 25 -17 64
-23 88 -8 32 -16 42 -31 42 -15 0 -19 -5 -15 -17z"/>
<path d="M3617 1349 c-26 -15 -47 -63 -47 -109 0 -59 42 -100 102 -100 24 0
49 4 57 9 24 15 2 29 -38 24 -31 -4 -43 -1 -60 16 -39 39 -28 51 49 51 68 0
70 1 70 25 0 33 -25 81 -45 89 -25 9 -68 7 -88 -5z m83 -38 c18 -34 12 -41
-40 -41 -54 0 -58 4 -34 38 19 27 60 29 74 3z"/>
</g>
</svg>
